<svg width="20" height="22" viewBox="0 0 20 22" fill="none" xmlns="http://www.w3.org/2000/svg">
<path d="M16.5031 10.6071H15.777V5.61721L10.944 0.726113H0.726113V3.85712H0V0H11.246L16.5031 5.31515V10.6071Z" fill="white"/>
<path d="M16.5031 21.2025H0V4.92017H0.726113V20.4764H15.777V19.3204H16.5031V21.2025Z" fill="white"/>
<path d="M15.3413 5.96575H10.729V0.365967H11.4551V5.23964H14.6152L15.3413 5.96575Z" fill="white"/>
<path d="M10.7347 8.34741L10.5779 9.07353H4.36816L4.525 8.34741H10.7347Z" fill="white"/>
<path d="M3.39797 8.34741L3.24113 9.07353H2.27686L2.4337 8.34741H3.39797Z" fill="white"/>
<path d="M10.7347 10.7522L10.5779 11.4783H4.36816L4.525 10.7522H10.7347Z" fill="white"/>
<path d="M3.39797 10.7522L3.24113 11.4783H2.27686L2.4337 10.7522H3.39797Z" fill="white"/>
<path d="M10.7347 13.1572L10.5779 13.8833H4.36816L4.525 13.1572H10.7347Z" fill="white"/>
<path d="M3.39797 13.1572L3.24113 13.8833H2.27686L2.4337 13.1572H3.39797Z" fill="white"/>
<path d="M16.1369 18.8035C14.005 18.8035 12.2739 17.0724 12.2739 14.9406C12.2739 12.8087 14.005 11.0776 16.1369 11.0776C18.2687 11.0776 19.9998 12.8087 19.9998 14.9406C19.9998 17.0724 18.2687 18.8035 16.1369 18.8035ZM16.1369 11.8038C14.4058 11.8038 13 13.2095 13 14.9406C13 16.6716 14.4058 18.0774 16.1369 18.0774C17.8679 18.0774 19.2737 16.6716 19.2737 14.9406C19.2737 13.2095 17.8679 11.8038 16.1369 11.8038Z" fill="white"/>
<path d="M16.562 12.8552H15.8242V17.0318H16.562V12.8552Z" fill="white"/>
<path d="M14.1982 14.6501H15.5285L15.5343 15.3879H14.0298L14.1982 14.6501Z" fill="white"/>
<path d="M18.2529 14.6501L18.0845 15.3879H16.1152L16.1617 14.6501H18.2529Z" fill="white"/>
</svg>
