<svg width="75" height="67" viewBox="0 0 75 67" fill="none" xmlns="http://www.w3.org/2000/svg">
<path d="M16.715 66.5302H14.4384V54.0911C14.4384 52.0513 13.8921 50.0661 12.8358 48.2995L0.250977 27.2278L5.98789 26.4993C8.08232 26.2443 10.1221 27.1549 11.3059 28.9215L15.3673 35.0227C18.2631 35.3505 20.8492 36.7893 22.6158 39.0294L24.8742 41.9434L23.0711 43.3458L20.8128 40.4318C19.3558 38.5559 17.1521 37.3903 14.7663 37.2446L14.2017 37.2082L13.7828 36.7347L9.43003 30.1782C8.73796 29.1401 7.53594 28.5755 6.2975 28.7394L4.00273 29.0308L14.8027 47.1339C16.0594 49.2284 16.715 51.6324 16.715 54.0911V66.5302Z" fill="white"/>
<path d="M18.8267 28.3932H16.5502V13.8233C16.5502 12.7123 15.6396 11.8017 14.5286 11.8017C13.4176 11.8017 12.507 12.7123 12.507 13.8233V23.0023H10.2305V13.8233C10.2305 11.4557 12.161 9.52515 14.5286 9.52515C16.8962 9.52515 18.8267 11.4557 18.8267 13.8233V28.3932Z" fill="white"/>
<path d="M12.507 22.0918V28.0655L12.1063 27.4645C11.7967 27.0092 11.4325 26.6085 11.0136 26.2807C10.7768 26.0803 10.5037 25.8982 10.2305 25.7525V22.0918H12.507Z" fill="white"/>
<path d="M25.1292 28.3389H22.8526V7.74061C22.8526 6.62965 21.942 5.73724 20.8493 5.73724C19.7565 5.73724 18.8459 6.64787 18.8459 7.74061V8.56017H16.5693V7.74061C16.5693 5.373 18.4999 3.46069 20.8493 3.46069C23.1987 3.46069 25.1292 5.39121 25.1292 7.74061V28.3389Z" fill="white"/>
<path d="M18.8281 8.5603V10.418C18.2635 9.65305 17.4621 9.05204 16.5515 8.74243V8.5603H18.8281Z" fill="white"/>
<path d="M31.1577 14.315V28.3386H28.8812V14.315C28.8812 13.2769 28.0434 12.4391 27.0053 12.4391C26.6593 12.4391 26.3132 12.5302 26.04 12.7123V10.2901C26.3497 10.199 26.6775 10.1626 27.0053 10.1626C29.3001 10.1626 31.1577 12.0203 31.1577 14.315Z" fill="white"/>
<path d="M37.2759 20.0883V38.3553C37.2759 41.1054 36.5838 43.8373 35.2907 46.2595L33.943 48.791C33.6698 49.3192 33.5241 49.902 33.5241 50.503V66.5299H31.2476V50.503C31.2476 49.5378 31.4843 48.5725 31.9396 47.7165L33.2873 45.2032C34.3983 43.1088 34.9993 40.7411 34.9993 38.3553V20.0883C34.9993 19.032 34.1433 18.176 33.087 18.176C32.7046 18.176 32.3585 18.2852 32.0671 18.4674V16.0269C32.3949 15.9358 32.741 15.8994 33.087 15.8994C35.3818 15.8994 37.2759 17.7753 37.2759 20.0883Z" fill="white"/>
<path d="M42.5214 34.0935H38.5146V36.3701H42.5214V34.0935Z" fill="white"/>
<path d="M47.0383 49.1189L47.1294 36.3702H41.7385V34.0936H49.4241L49.3513 43.6187L58.9857 34.0936H72.2807V4.20707C72.2807 3.15075 71.4247 2.29476 70.3684 2.29476H30.0097V8.57805H27.7332V0H70.3502C72.6632 0 74.5391 1.87588 74.5391 4.18886V36.3702H59.9145L47.0201 49.1189H47.0383Z" fill="white"/>
<path d="M51.2099 19.3418C53.6322 18.4311 55.5991 17.1016 55.5991 15.08C55.5991 13.4045 54.2696 12.2025 52.3027 12.2025C50.3357 12.2025 48.9152 13.4591 48.5327 15.1347H46.2197C46.8572 12.0021 49.1701 10.1809 52.4119 10.1809C55.6538 10.1809 57.9121 12.0386 57.9121 15.0983C57.9121 17.9758 55.4898 19.5421 53.3044 20.5802V23.1664H51.2099V19.3418ZM50.8093 26.2443C50.8093 25.4429 51.4831 24.7873 52.2663 24.7873C53.0494 24.7873 53.7232 25.4611 53.7232 26.2443C53.7232 27.0274 53.0494 27.7013 52.2663 27.7013C51.4831 27.7013 50.8093 27.0092 50.8093 26.2443Z" fill="#ED7164"/>
<path d="M30.0097 8.5603V9.96266C29.5908 9.10668 28.4981 8.72422 27.7332 8.74243V8.5603H30.0097Z" fill="white"/>
</svg>
