<svg width="88" height="67" viewBox="0 0 88 67" fill="none" xmlns="http://www.w3.org/2000/svg">
<path d="M12.16 61.1367C5.52729 61.1367 0.0961268 55.7536 0.0961268 49.0968L0 12.088C0 8.86771 1.24965 5.83971 3.50863 3.5567C5.79164 1.27368 8.81964 0 12.0399 0H25.1372L25.1852 15.3803L13.65 15.4524C13.0973 15.4524 12.6647 15.909 12.6647 16.4377L12.7368 45.0835C12.7368 45.6362 13.1934 46.0688 13.7221 46.0688H17.8796V49.0728H13.7221C11.391 49.0968 9.73284 47.2944 9.70881 45.1075L9.63672 16.4617C9.63672 14.2748 11.4151 12.4725 13.6019 12.4484L22.1572 12.4004V2.97993L12.0399 3.00396C9.61269 3.00396 7.3537 3.96523 5.64745 5.67149C3.9412 7.37774 3.00396 9.66075 3.00396 12.088L3.10009 49.0968C3.10009 54.0954 7.18548 58.1327 12.16 58.1327H22.2774V49.0487H20.1626V46.0448H25.2814L25.3294 61.0886H12.2321C12.2321 61.0886 12.2321 61.1127 12.2081 61.1127L12.16 61.1367Z" fill="white"/>
<path d="M57.2436 66.9759C57.0273 66.9759 56.835 66.9279 56.6188 66.8558C55.9459 66.5914 55.4893 65.9666 55.4893 65.2457V49.1204H28.2373V46.1164H58.4932V61.8572L72.5278 45.8521H84.9521V8.89129C84.9521 8.38662 84.5436 7.97809 84.0389 7.97809H28.2613V4.97412H84.0389C86.2018 4.97412 87.9561 6.72844 87.9561 8.89129V48.8801H73.8976L58.5413 66.3992C58.2048 66.7837 57.7242 67 57.2436 67V66.9759Z" fill="white"/>
<path d="M48.1373 20.427L47.4885 23.431H29.3926L30.0414 20.427H48.1373Z" fill="white"/>
<path d="M47.4615 23.4309L46.8127 26.4349H28.7168L29.3657 23.4309H47.4615Z" fill="#ED7164"/>
<path d="M62.5563 29.078L61.9075 32.082H29.3926L30.0414 29.078H62.5563Z" fill="white"/>
<path d="M61.8806 32.082L61.2317 35.086H28.7168L29.3657 32.082H61.8806Z" fill="#ED7164"/>
</svg>
