<svg width="63" height="47" viewBox="0 0 63 47" fill="none" xmlns="http://www.w3.org/2000/svg">
<path d="M13.1156 32.2834L10.2907 33.2922C9.33232 33.2922 8.54204 32.5188 8.54204 31.5603L8.4916 11.5176C8.4916 10.5592 9.26506 9.76888 10.2235 9.76888L17.2519 9.71844V1.02539L9.13054 1.0422C5.04465 1.0422 1.74902 4.37146 1.74902 8.45736L1.81628 34.3515C1.81628 38.4374 5.14553 41.7331 9.23143 41.7331H17.336L17.3192 33.2754L14.797 32.2497H13.1156V32.2834Z" fill="#C5E5F7"/>
<path d="M9.21512 42.7758C4.57434 42.7758 0.774289 39.0094 0.774289 34.3518L0.707031 8.45764C0.707031 6.20451 1.58138 4.0859 3.16193 2.48853C4.7593 0.891164 6.87791 0 9.13104 0H18.2949L18.3285 10.7612L10.2576 10.8117C9.87088 10.8117 9.56822 11.1311 9.56822 11.501L9.61866 31.5438C9.61866 31.9305 9.93814 32.2332 10.3081 32.2332H13.2169V34.335H10.3081C8.67706 34.3518 7.51686 33.0907 7.50005 31.5606L7.4496 11.5179C7.4496 9.98775 8.69387 8.72667 10.224 8.70986L16.2099 8.67623V2.08499L9.13104 2.1018C7.43279 2.1018 5.85224 2.77438 4.65842 3.9682C3.46459 5.16202 2.80883 6.75939 2.80883 8.45764L2.87609 34.3518C2.87609 37.8492 5.73454 40.674 9.21512 40.674H16.294V34.3182H14.8143V32.2164H18.3958L18.4294 42.7422H9.26556C9.26556 42.7422 9.26556 42.759 9.24874 42.759L9.21512 42.7758Z" fill="#24293D"/>
<path d="M40.7598 46.8611C40.6085 46.8611 40.474 46.8275 40.3226 46.7771C39.8518 46.5921 39.5324 46.1549 39.5324 45.6505V34.368H20.4648V32.2662H41.6342V43.2797L51.4538 32.0813H60.1468V6.22073C60.1468 5.86763 59.861 5.58178 59.5079 5.58178H20.4817V3.47998H59.5079C61.0212 3.47998 62.2486 4.70743 62.2486 6.22073V34.1999H52.4122L41.6678 46.4576C41.4324 46.7266 41.0961 46.8779 40.7598 46.8779V46.8611Z" fill="#24293D"/>
<path d="M34.3857 14.292L33.9317 16.3938H21.2705L21.7245 14.292H34.3857Z" fill="#24293D"/>
<path d="M33.9141 16.3943L33.4601 18.4961H20.7988L21.2528 16.3943H33.9141Z" fill="#C5E5F7"/>
<path d="M44.4744 20.3455L44.0204 22.4473H21.2705L21.7245 20.3455H44.4744Z" fill="#24293D"/>
<path d="M44.0027 22.4475L43.5487 24.5493H20.7988L21.2528 22.4475H44.0027Z" fill="#C5E5F7"/>
</svg>
