<svg width="35" height="56" viewBox="0 0 35 56" fill="none" xmlns="http://www.w3.org/2000/svg">
<path d="M26.7653 15.088C26.7653 20.0999 23.4241 24.3264 18.8548 25.6829C18.912 25.5401 18.9405 25.3688 18.9405 25.2117C18.9405 24.2693 18.1409 23.4982 17.1557 23.4982C16.1704 23.4982 15.3565 24.2693 15.3565 25.2117C15.3565 25.5544 15.4565 25.8685 15.6421 26.1398C9.55936 26.097 4.64746 21.1565 4.64746 15.088C4.64746 9.01955 9.6022 4.02197 15.7135 4.02197C21.8248 4.02197 26.7653 8.97671 26.7653 15.088Z" fill="#C5E5F7"/>
<path d="M10.8465 33.8071L13.231 37.077V40.1041L9.4043 34.8638L10.8465 33.8071Z" fill="#25293B"/>
<path d="M17.0419 55.4534H15.0286L12.2871 50.2273L13.8721 49.3992L17.0419 55.4534Z" fill="#25293B"/>
<path d="M12.6167 50.8701L5.57731 37.4052C4.66346 36.063 4.99187 34.1496 6.37692 33.1358C7.79052 32.0935 9.78955 32.3934 10.8319 33.807L12.0599 35.4776L10.6177 36.5342L9.38974 34.8636C8.93282 34.2496 8.04754 34.1068 7.41927 34.578C6.80528 35.0206 6.66249 35.8774 7.09086 36.5056L14.1874 50.0562L12.6025 50.8844H12.6167V50.8701Z" fill="#25293B"/>
<path d="M16.2575 43.1594L14.4727 41.089V25.0967C14.4727 23.5261 15.7577 22.241 17.3284 22.241C18.8991 22.241 20.1842 23.5261 20.1842 25.0967V38.0047H18.3993V25.0967C18.3993 24.5113 17.9138 24.0258 17.3284 24.0258C16.743 24.0258 16.2575 24.5113 16.2575 25.0967V43.1594Z" fill="#25293B"/>
<path d="M24.7691 37.4907H22.9843V32.8073C22.9843 32.436 22.6844 32.1362 22.3132 32.1362H21.0566V30.3513H22.3132C23.6697 30.3513 24.7691 31.4508 24.7691 32.8073V37.4907Z" fill="#25293B"/>
<path d="M29.8091 38.29H28.0242V34.9345C28.0242 34.5775 27.7386 34.2919 27.3817 34.2919H26.168V32.5071H27.3817C28.7239 32.5071 29.8091 33.5923 29.8091 34.9345V38.29Z" fill="#25293B"/>
<path d="M32.4929 52.4688L30.8223 51.8406L31.9217 48.8991C32.45 47.4855 32.7071 46.0005 32.7071 44.487V37.2477C32.7071 36.7622 32.3215 36.3766 31.8361 36.3766H30.9793V34.5918H31.8361C33.3068 34.5918 34.4919 35.7912 34.4919 37.2477V44.487C34.4919 46.2147 34.1921 47.8996 33.5924 49.5131L32.4929 52.4546V52.4688Z" fill="#25293B"/>
<path d="M33.0498 50.9841L31.3792 55.4534H29.4658L31.3792 50.3701L33.0498 50.9841Z" fill="#25293B"/>
<path d="M15.714 0.223145C7.43234 0.223145 0.707031 6.94845 0.707031 15.2301C0.707031 22.4838 5.87595 28.538 12.7298 29.9373V28.0953C6.87546 26.7531 2.49188 21.4843 2.49188 15.2301C2.49188 7.93369 8.41757 2.00799 15.714 2.00799C23.0105 2.00799 28.9219 7.93369 28.9219 15.2301C28.9219 20.2563 26.0947 24.6256 21.9539 26.8673V28.8521C27.1228 26.4961 30.7068 21.2701 30.7068 15.2301C30.7068 6.94845 23.9814 0.223145 15.714 0.223145Z" fill="#24293D"/>
<path d="M20.0259 14.4166L14.8427 20.7849H12.6152L17.7842 14.4166L12.6152 8.0625H14.857L20.0259 14.4166Z" fill="#24293D"/>
</svg>
