<svg width="58" height="44" viewBox="0 0 58 44" fill="none" xmlns="http://www.w3.org/2000/svg">
<path d="M29.3944 9.73579C27.1998 9.73579 25.4207 7.95669 25.4207 5.76206C25.4207 3.56743 27.1998 1.78833 29.3944 1.78833C31.5891 1.78833 33.3682 3.56743 33.3682 5.76206C33.3682 7.95669 31.5891 9.73579 29.3944 9.73579Z" fill="#C5E5F7"/>
<path d="M35.1111 15.3665H23.6298C21.3423 15.3665 19.4947 17.214 19.4947 19.5015V30.8215H39.2461V19.5015C39.2461 17.214 37.3985 15.3665 35.1111 15.3665Z" fill="#C5E5F7"/>
<path d="M51.4151 28.27H53.248V19.5308C53.248 17.8005 51.8404 16.3928 50.1101 16.3928H41.4295V18.2257H50.1101C50.8286 18.2257 51.4151 18.8123 51.4151 19.5308V28.27Z" fill="#24293D"/>
<path d="M45.2123 13.1665C47.6903 13.1665 49.7139 11.143 49.7139 8.66494C49.7139 6.18685 47.6903 4.16333 45.2123 4.16333C42.7342 4.16333 40.7106 6.18685 40.7106 8.66494C40.7106 11.143 42.7342 13.1665 45.2123 13.1665ZM45.2123 5.99623C46.6786 5.99623 47.881 7.19862 47.881 8.66494C47.881 10.1313 46.6786 11.3336 45.2123 11.3336C43.7459 11.3336 42.5436 10.1313 42.5436 8.66494C42.5436 7.19862 43.7459 5.99623 45.2123 5.99623Z" fill="#24293D"/>
<path d="M19.5387 28.2703H21.3716V18.1527C21.3716 17.1116 22.2074 16.2758 23.2485 16.2758H35.5363C36.5774 16.2758 37.4132 17.1116 37.4132 18.1527V28.2703H39.2461V18.1527C39.2461 16.1145 37.5892 14.4429 35.5363 14.4429H23.2485C21.2103 14.4429 19.5387 16.0998 19.5387 18.1527V28.2703Z" fill="#24293D"/>
<path d="M29.393 11.173C32.3843 11.173 34.8037 8.73892 34.8037 5.76229C34.8037 2.78566 32.3696 0.351562 29.393 0.351562C26.4163 0.351562 23.9823 2.78566 23.9823 5.76229C23.9823 8.73892 26.4163 11.173 29.393 11.173ZM29.393 2.18446C31.3725 2.18446 32.9708 3.78276 32.9708 5.76229C32.9708 7.74182 31.3579 9.34012 29.393 9.34012C27.4281 9.34012 25.8152 7.72716 25.8152 5.76229C25.8152 3.79742 27.4281 2.18446 29.393 2.18446Z" fill="#24293D"/>
<path d="M5.32695 28.2698H7.15985V19.5305C7.15985 18.812 7.74639 18.2255 8.46488 18.2255H17.1455V16.3926H8.46488C6.73462 16.3926 5.32695 17.8002 5.32695 19.5305V28.2698Z" fill="#24293D"/>
<path d="M13.3646 13.1665C15.8427 13.1665 17.8662 11.143 17.8662 8.66494C17.8662 6.18685 15.8427 4.16333 13.3646 4.16333C10.8865 4.16333 8.863 6.18685 8.863 8.66494C8.863 11.143 10.8865 13.1665 13.3646 13.1665ZM13.3646 5.99623C14.8309 5.99623 16.0333 7.19862 16.0333 8.66494C16.0333 10.1313 14.8309 11.3336 13.3646 11.3336C11.8983 11.3336 10.6959 10.1313 10.6959 8.66494C10.6959 7.19862 11.8983 5.99623 13.3646 5.99623Z" fill="#24293D"/>
<path d="M0.873405 43.3146H2.7503L5.22838 32.5371C5.27237 32.3172 5.46299 32.1705 5.6976 32.1705H52.8545C53.0891 32.1705 53.2797 32.3172 53.3384 32.5371L55.8165 43.3146H57.6787L55.1126 32.1266C54.878 31.0708 53.9543 30.3376 52.8545 30.3376H5.6976C4.61252 30.3376 3.67408 31.0708 3.43947 32.1266L0.873405 43.3146Z" fill="#24293D"/>
<path d="M28.3663 15.3665H30.1992V25.4547H28.3663V15.3665Z" fill="#24293D"/>
</svg>
