<svg width="24" height="21" viewBox="0 0 24 21" fill="none" xmlns="http://www.w3.org/2000/svg">
<path d="M21.7985 15.9886L19.3704 13.5605L18.122 14.8088L17.8271 14.7608C17.6556 14.7197 17.5253 14.5893 17.4773 14.4179L15.7968 8.46417C15.7419 8.27211 15.7968 8.06634 15.9408 7.9223C16.0849 7.77826 16.2906 7.73025 16.4827 7.77826L22.6765 9.52047L22.7794 9.8017C22.8205 9.96631 22.7794 10.1515 22.6559 10.275L20.9686 11.9692L20.3581 11.3656L21.5996 10.1172L16.7708 8.75911L18.1289 13.5879L19.3704 12.3464L21.7985 14.7745L22.7862 13.7868L21.2292 12.2298L21.8328 11.6262L24.0003 13.7937L21.7985 15.9955V15.9886Z" fill="white"/>
<path d="M13.3131 14.2187H12.4557V11.0841C12.4557 10.6109 12.0716 10.2336 11.6052 10.2336H5.95328C5.48 10.2336 5.10275 10.6177 5.10275 11.0841V14.2187H4.24536V11.0841C4.24536 10.1376 5.01358 9.37622 5.95328 9.37622H11.5983C12.5449 9.37622 13.3062 10.1444 13.3062 11.0841V14.2187H13.3131Z" fill="white"/>
<path d="M8.77965 7.88108C7.40783 7.88108 6.28979 6.76304 6.28979 5.39122C6.28979 4.0194 7.40783 2.90137 8.77965 2.90137C10.1515 2.90137 11.2695 4.0194 11.2695 5.39122C11.2695 6.76304 10.1515 7.88108 8.77965 7.88108ZM8.77965 3.7519C7.88111 3.7519 7.14718 4.48582 7.14718 5.38436C7.14718 6.2829 7.88111 7.01683 8.77965 7.01683C9.67819 7.01683 10.4121 6.2829 10.4121 5.38436C10.4121 4.48582 9.67819 3.7519 8.77965 3.7519Z" fill="white"/>
<path d="M20.5979 20.6047H0V5.80957H0.857388V19.7473H19.7405V14.9528L20.5979 15.817V20.6047Z" fill="white"/>
<path d="M20.5979 8.29951L19.7405 8.04573V2.77794C19.7405 1.72163 18.8763 0.857388 17.8199 0.857388H0.857388V4.42412H0V0H17.8199C19.3495 0 20.5979 1.24836 20.5979 2.77794V8.29951Z" fill="white"/>
<path d="M13.4987 15.7417L13.3135 16.5991H4.06055L4.24574 15.7417H13.4987Z" fill="white"/>
</svg>
