<svg width="59" height="45" viewBox="0 0 59 45" fill="none" xmlns="http://www.w3.org/2000/svg">
<path d="M20.3027 19.2763C22.4126 19.2763 24.123 17.5659 24.123 15.456C24.123 13.3461 22.4126 11.6357 20.3027 11.6357C18.1928 11.6357 16.4824 13.3461 16.4824 15.456C16.4824 17.5659 18.1928 19.2763 20.3027 19.2763Z" fill="#C5E5F7"/>
<path d="M11.9854 34.0729L12.2058 24.6104L28.295 25.0071L28.9268 34.0729H11.9854Z" fill="#C5E5F7"/>
<path d="M29.8534 34.073H28.0167V27.3581C28.0167 26.3443 27.1939 25.5361 26.1947 25.5361H14.0874C13.0735 25.5361 12.2654 26.359 12.2654 27.3581V34.073H10.4287V27.3581C10.4287 25.3304 12.0744 23.6995 14.0874 23.6995H26.18C28.2077 23.6995 29.8387 25.3451 29.8387 27.3581V34.073H29.8534Z" fill="#24293D"/>
<path d="M20.1423 20.5109C17.2036 20.5109 14.8086 18.1159 14.8086 15.1772C14.8086 12.2385 17.2036 9.84351 20.1423 9.84351C23.081 9.84351 25.476 12.2385 25.476 15.1772C25.476 18.1159 23.081 20.5109 20.1423 20.5109ZM20.1423 11.6655C18.2175 11.6655 16.6453 13.2377 16.6453 15.1625C16.6453 17.0873 18.2175 18.6595 20.1423 18.6595C22.0671 18.6595 23.6393 17.0873 23.6393 15.1625C23.6393 13.2377 22.0671 11.6655 20.1423 11.6655Z" fill="#24293D"/>
<path d="M44.179 44.4759H0.0400391V12.7822H1.87671V42.6392H42.3423V39.3479H44.179V44.4759Z" fill="#24293D"/>
<path d="M44.179 9.51999H42.3423V6.30214C42.3423 4.03936 40.4909 2.18799 38.2282 2.18799H1.87671V7.0662H0.0400391V0.351318H38.2282C41.5048 0.351318 44.179 3.02552 44.179 6.30214V9.51999Z" fill="#24293D"/>
<path d="M53.8762 26.7704H57.388V21.9657H53.744C53.6558 21.6424 53.5383 21.3486 53.406 21.0547C53.2738 20.7461 53.1269 20.467 52.9505 20.1878L55.566 17.5871L52.1571 14.1782L49.4829 16.8524C48.9539 16.5732 48.3809 16.3381 47.7932 16.1618V12.5913H42.959V16.1618C42.3713 16.3381 41.7836 16.5732 41.2546 16.8524L38.5951 14.1782L35.1715 17.5871L37.787 20.1878C37.4637 20.7461 37.1992 21.3339 36.9935 21.9657H33.3643V26.7704H36.876C37.0376 27.461 37.3021 28.1222 37.6106 28.7246L35.1715 31.1491L38.5951 34.5579L40.9607 32.1923C41.5779 32.5596 42.2538 32.8535 42.959 33.0445V36.615H47.7932V33.0445C48.4984 32.8535 49.1597 32.5596 49.7915 32.1923L52.1571 34.5579L55.566 31.1491L53.1269 28.7246C53.2738 28.4455 53.406 28.1663 53.5236 27.8871C53.6705 27.5345 53.7881 27.1525 53.8762 26.7704ZM45.3688 28.372C43.2823 28.372 41.6072 26.697 41.6072 24.6105C41.6072 22.524 43.2823 20.8343 45.3688 20.8343C47.4552 20.8343 49.145 22.524 49.145 24.6105C49.145 26.697 47.4552 28.372 45.3688 28.372Z" fill="#C5E5F7"/>
<path d="M48.7199 37.5258H42.0638V33.7056C41.7552 33.588 41.4466 33.4558 41.1528 33.3088L38.6108 35.8361L33.8942 31.1342L36.5243 28.5041C36.3039 27.9898 36.1276 27.4756 35.9954 26.9613L37.7733 26.5352C37.9055 27.1082 38.1406 27.696 38.4345 28.269L38.7431 28.8714L36.4803 31.1342L38.5961 33.2354L40.8295 31.002L41.4466 31.3693C42.005 31.7073 42.5927 31.9571 43.2245 32.1334L43.9004 32.3244V35.6745H46.8832V32.3244L47.5591 32.1334C48.1762 31.9571 48.7786 31.7073 49.337 31.3693L50.2774 32.9415C49.7778 33.2354 49.2635 33.4852 48.7199 33.6762V37.4965V37.5258ZM52.8193 35.2043L51.5263 33.9113L54.2887 31.1636L52.0259 28.9008L52.3344 28.2984C52.4667 28.0486 52.5842 27.7988 52.6871 27.549C52.8193 27.2405 52.9222 26.9025 53.0103 26.5646L53.1867 25.8593H56.4927V22.8765H53.0985L52.8928 22.23C52.8046 21.9509 52.7018 21.6717 52.5842 21.4219C52.4667 21.1721 52.3344 20.9076 52.1875 20.6725L51.8055 20.0554L54.274 17.5869L52.1581 15.4858L49.6602 17.9836L49.0578 17.6751C48.5729 17.4253 48.0587 17.2196 47.5297 17.0726L46.8538 16.8816V13.5315H43.871V16.8816L43.1952 17.0726C42.6662 17.2196 42.1519 17.4253 41.667 17.6751L41.0646 17.9836L38.5667 15.4858L36.4509 17.5869L38.9194 20.0554L38.5373 20.6725C38.2582 21.1427 38.0231 21.657 37.8321 22.2447L37.6264 22.8912H34.2322V26.785H32.3955V21.0546H36.3039C36.3921 20.8195 36.495 20.5844 36.6125 20.364L33.8355 17.5869L38.552 12.885L41.4026 15.7355C41.5936 15.6474 41.7993 15.5739 41.9903 15.5005V11.6802H48.6464V15.5005C48.8521 15.5739 49.0431 15.6474 49.2341 15.7355L52.0847 12.885L56.8012 17.5869L54.0242 20.364C54.083 20.4668 54.127 20.5697 54.1711 20.6872C54.2299 20.8048 54.274 20.937 54.318 21.0546H58.2265V27.7107H54.4944C54.4356 27.887 54.3621 28.0633 54.3033 28.2396C54.2593 28.3425 54.2152 28.4453 54.1711 28.5482L56.8012 31.1783L52.7312 35.2337L52.8193 35.2043ZM45.3992 30.1498C44.8849 30.1498 44.3706 30.0763 43.871 29.9441C43.3568 29.7971 42.9013 29.5914 42.5046 29.3416C41.667 28.8274 40.9618 28.0927 40.4916 27.2111C40.2271 26.7115 40.0508 26.1972 39.9479 25.6683C39.8744 25.345 39.8451 24.9924 39.8451 24.5957C39.8451 24.0961 39.9185 23.5818 40.0508 23.0676C40.2418 22.4504 40.5063 21.9068 40.8442 21.4219C41.285 20.7901 41.858 20.2611 42.5046 19.8497C43.0629 19.4971 43.68 19.262 44.3265 19.1444C44.6498 19.071 45.0024 19.0416 45.3992 19.0416V20.8782C45.1494 20.8782 44.9143 20.9076 44.6939 20.9517C44.2384 21.0399 43.8417 21.1868 43.4596 21.4219C43.0188 21.6864 42.6368 22.0537 42.3429 22.4798C42.1225 22.8031 41.9462 23.1704 41.814 23.5818C41.7258 23.9051 41.6817 24.2577 41.6817 24.5957C41.6817 24.8455 41.7111 25.0805 41.7552 25.3009C41.8287 25.6683 41.9462 26.0062 42.1225 26.3442C42.4311 26.9319 42.9013 27.4315 43.4743 27.7694C43.7535 27.9458 44.0621 28.078 44.3853 28.1809C45.0465 28.3572 45.7371 28.3719 46.4571 28.1809C46.7656 28.0927 47.0742 27.9458 47.3387 27.7841C47.9117 27.4315 48.3819 26.9466 48.6905 26.3442C48.8668 26.0209 48.9843 25.683 49.0431 25.3303C49.1019 25.0805 49.1166 24.8455 49.1166 24.5957H50.9533C50.9533 24.9777 50.9092 25.345 50.8357 25.6977C50.7476 26.1972 50.5712 26.7115 50.3068 27.1964C49.8366 28.078 49.1313 28.8274 48.2938 29.3416C47.897 29.5914 47.4415 29.7824 46.9567 29.9441C46.4277 30.091 45.9134 30.1645 45.4138 30.1645L45.3992 30.1498Z" fill="#24293D"/>
</svg>
