<svg width="47" height="49" viewBox="0 0 47 49" fill="none" xmlns="http://www.w3.org/2000/svg">
<path d="M8.40137 5.80289L11.8322 4.66809L13.5739 1.5144H36.9561L38.3548 4.45696L40.9015 6.26473V11.1074L38.7243 12.5985L36.9957 15.4223H13.5212L11.9905 12.3214L9.32504 11.3581L8.40137 5.80289Z" fill="#C5E5F7"/>
<path d="M13.3877 25.8333C12.6619 25.8333 11.9494 26.1367 11.448 26.6646L4.73155 34.0144L3.51758 32.8928L10.2472 25.5298C11.0653 24.6721 12.2133 24.1838 13.3877 24.1838H27.4275C28.338 24.1838 29.1033 24.87 29.1957 25.7673L29.6575 29.8578H18.3095L16.515 28.2084H27.8102L27.5595 25.952C27.5595 25.886 27.4935 25.8333 27.4275 25.8333H13.3877Z" fill="#24293D"/>
<path d="M46.6547 26.731L35.7422 38.488C35.1088 39.1874 34.1983 39.5832 33.2483 39.5832H17.1763L14.4317 42.407L13.2441 41.259L15.9228 38.4748C16.2527 38.1317 16.7013 37.9338 17.1763 37.9338H33.2483C33.7365 37.9338 34.2115 37.7359 34.5414 37.3664L42.8809 28.3804H40.1626C39.6876 28.3804 39.2126 28.5783 38.8827 28.9346L33.8025 33.6717C33.3802 34.0676 32.826 34.2787 32.2454 34.2787H23.1406L19.6703 31.0986H22.1246L23.7872 32.6293H32.2454C32.4038 32.6293 32.5621 32.5633 32.6809 32.4577L37.7215 27.7602C38.3285 27.1136 39.2389 26.731 40.1626 26.731H46.6547Z" fill="#24293D"/>
<path d="M11.8048 48.0409L10.5908 46.9324L12.2006 45.1775L0.206055 34.0538L1.32766 32.853L14.5362 45.0851L11.8048 48.0409Z" fill="#24293D"/>
<path d="M41.9308 16.2537H8.26953V0.86792H41.9308V16.2537ZM9.91895 14.6043H40.2814V2.51734H9.91895V14.6043Z" fill="#24293D"/>
<path d="M41.3603 19.1697H5.23145V2.13452H6.88086V17.5203H41.3603V19.1697Z" fill="#24293D"/>
<path d="M40.7146 6.27786C38.4318 6.27786 36.5713 4.41731 36.5713 2.13452H38.2207C38.2207 3.50684 39.3423 4.62844 40.7146 4.62844V6.27786Z" fill="#24293D"/>
<path d="M9.67969 6.27786V4.62844C11.052 4.62844 12.1736 3.50684 12.1736 2.13452H13.823C13.823 4.41731 11.9625 6.27786 9.67969 6.27786Z" fill="#24293D"/>
<path d="M38.2354 14.9209H36.5859C36.5859 12.6381 38.4465 10.7776 40.7293 10.7776V12.427C39.357 12.427 38.2354 13.5486 38.2354 14.9209Z" fill="#24293D"/>
<path d="M13.823 14.9209H12.1736C12.1736 13.5486 11.052 12.427 9.67969 12.427V10.7776C11.9625 10.7776 13.823 12.6381 13.823 14.9209Z" fill="#24293D"/>
<path d="M25.8979 12.1498V13.1526H24.6048V12.1498C23.404 11.9254 22.7178 11.0809 22.665 10.0385H24.1297C24.1825 10.6851 24.6443 11.0546 25.2777 11.0546C25.8583 11.0546 26.3201 10.7115 26.3201 10.1573C26.3201 8.78495 22.8234 9.4975 22.8234 7.02997C22.8234 6.02713 23.5491 5.27499 24.6048 5.06387V4.07422H25.8979V5.06387C26.9931 5.31458 27.5869 6.13269 27.6397 7.00358H26.2278C26.1882 6.47577 25.7923 6.13269 25.2249 6.13269C24.6575 6.13269 24.2881 6.47577 24.2881 6.91122C24.2881 8.25714 27.8376 7.55779 27.8376 10.0253C27.8376 11.0941 27.0459 11.9122 25.9111 12.1366L25.8979 12.1498Z" fill="#24293D"/>
</svg>
