<svg width="13" height="13" viewBox="0 0 13 13" fill="none" xmlns="http://www.w3.org/2000/svg">
<path d="M8.1517 2.70817C8.68077 2.81139 9.16699 3.07014 9.54815 3.4513C9.92931 3.83246 10.1881 4.31869 10.2913 4.84775M8.1517 0.541504C9.25089 0.663615 10.2759 1.15585 11.0584 1.93738C11.8409 2.71892 12.3345 3.7433 12.458 4.84234M11.9163 9.16484V10.7898C11.9169 10.9407 11.886 11.09 11.8256 11.2282C11.7651 11.3665 11.6765 11.4905 11.5653 11.5925C11.4542 11.6945 11.3229 11.7721 11.18 11.8205C11.0371 11.8688 10.8857 11.8867 10.7355 11.8732C9.06865 11.6921 7.46758 11.1225 6.06087 10.2103C4.75211 9.37861 3.64251 8.26901 2.81087 6.96025C1.89544 5.54716 1.32575 3.93829 1.14795 2.264C1.13442 2.11422 1.15222 1.96325 1.20022 1.82072C1.24823 1.67819 1.32539 1.54721 1.42678 1.43613C1.52818 1.32505 1.6516 1.2363 1.78917 1.17554C1.92675 1.11477 2.07547 1.08331 2.22587 1.08317H3.85087C4.11374 1.08058 4.36859 1.17367 4.56791 1.34508C4.76722 1.5165 4.89741 1.75454 4.9342 2.01484C5.00279 2.53487 5.12999 3.04548 5.31337 3.53692C5.38625 3.7308 5.40202 3.9415 5.35882 4.14406C5.31562 4.34663 5.21525 4.53256 5.06962 4.67984L4.3817 5.36775C5.15279 6.72384 6.27561 7.84666 7.6317 8.61775L8.31962 7.92984C8.46689 7.7842 8.65283 7.68384 8.85539 7.64064C9.05796 7.59744 9.26866 7.61321 9.46253 7.68609C9.95397 7.86947 10.4646 7.99667 10.9846 8.06525C11.2477 8.10237 11.488 8.23491 11.6598 8.43765C11.8316 8.64039 11.9229 8.89919 11.9163 9.16484Z" stroke="black" stroke-linecap="round" stroke-linejoin="round"/>
</svg>
