<svg width="22" height="22" viewBox="0 0 22 22" fill="none" xmlns="http://www.w3.org/2000/svg">
<path d="M10.9968 22C4.93245 22 0 17.0676 0 11.0032C0 4.93878 4.93245 0 10.9968 0C14.1334 0 17.1245 1.34062 19.2113 3.68669L18.6232 4.21156C16.6881 2.03622 13.9057 0.790457 10.9968 0.790457C5.36878 0.790457 0.790457 5.36879 0.790457 11.0032C0.790457 16.6375 5.36878 21.2095 10.9968 21.2095C16.6249 21.2095 21.2032 16.6312 21.2032 11.0032C21.2032 9.20725 20.7289 7.44294 19.8373 5.89997L20.5203 5.50158C21.4815 7.1647 21.9937 9.06812 21.9937 11.0032C21.9937 17.0676 17.0612 22 10.9968 22Z" fill="white"/>
<path d="M14.7279 16.9665H7.25968C6.7854 16.9665 6.39966 16.5808 6.39966 16.1065V10.8642C6.39966 10.3899 6.7854 10.0042 7.25968 10.0042H14.7279C15.2022 10.0042 15.5879 10.3899 15.5879 10.8642V16.1065C15.5879 16.5808 15.2022 16.9665 14.7279 16.9665ZM7.25968 10.8009C7.22173 10.8009 7.19012 10.8325 7.19012 10.8705V16.1128C7.19012 16.1507 7.22173 16.1824 7.25968 16.1824H14.7279C14.7659 16.1824 14.7975 16.1507 14.7975 16.1128V10.8705C14.7975 10.8325 14.7659 10.8009 14.7279 10.8009H7.25968Z" fill="white"/>
<path d="M14.1397 10.1939H13.3493V7.68973C13.3493 6.39338 12.2932 5.33733 10.9969 5.33733C9.70051 5.33733 8.64446 6.39338 8.64446 7.68973V9.10623H7.854V7.68973C7.854 5.95705 9.26418 4.54688 10.9969 4.54688C12.7295 4.54688 14.1397 5.95705 14.1397 7.68973V10.1939Z" fill="white"/>
<path d="M11.313 11.9075H10.6807V14.8796H11.313V11.9075Z" fill="white"/>
<path d="M12.1215 12.3775L9.5481 13.8645L9.86447 14.412L12.4379 12.9251L12.1215 12.3775Z" fill="white"/>
<path d="M9.95116 12.2941L9.59326 12.8154L12.0383 14.494L12.3962 13.9727L9.95116 12.2941Z" fill="white"/>
<path d="M19.3062 4.38876L15.2781 4.31288L16.0622 3.54139L18.5095 3.58566L18.4905 1.13841L19.2746 0.360596L19.3062 4.38876Z" fill="white"/>
<path d="M15.2781 4.31274L15.2465 4.34436L15.2212 4.31274H15.2781Z" fill="white"/>
</svg>
