<svg width="41" height="49" viewBox="0 0 41 49" fill="none" xmlns="http://www.w3.org/2000/svg">
<path d="M40.8101 10.7622H39.0986V37.6111H40.8101V10.7622Z" fill="#24293D"/>
<path d="M2.58448 42.7591H0.873047V4.204C0.873047 1.89015 2.76247 0.000732422 5.07632 0.000732422H40.811V8.55788H39.0995V1.71216H5.07632C3.70717 1.71216 2.58448 2.83486 2.58448 4.204V42.7591Z" fill="#24293D"/>
<path d="M40.9068 48.7691H6.86989C3.55657 48.7691 0.873047 46.0719 0.873047 42.7722C0.873047 39.4726 3.57026 36.7754 6.86989 36.7754H40.7425V38.4868H6.86989C4.50128 38.4868 2.58448 40.4173 2.58448 42.7722C2.58448 45.1272 4.51497 47.0577 6.86989 47.0577H40.9068V48.7691Z" fill="#24293D"/>
<path d="M40.9052 41.9099H6.08789V43.6213H40.9052V41.9099Z" fill="#24293D"/>
<path d="M25.1631 18.279L25.6286 17.5807L27.9698 15.4722C28.052 15.3901 28.0246 15.2395 27.9014 15.1984L12.1836 10.7624C11.9372 10.6939 11.7044 10.9267 11.7729 11.1731L16.2089 26.8909C16.2363 27.0141 16.3869 27.0552 16.4827 26.9593L20.1246 23.3174L26.5322 29.725L30.7492 25.508L26.3816 20.0315L24.944 18.4843" fill="#C5E5F7"/>
<path d="M26.5325 30.9575L20.1249 24.5499L17.0854 27.5894C16.8253 27.8495 16.4556 27.9453 16.1133 27.8495C15.7711 27.7537 15.4835 27.4935 15.3877 27.1376L10.9517 11.4198C10.8421 11.009 10.9517 10.5709 11.2529 10.256C11.5541 9.95481 12.0059 9.83159 12.4167 9.95481L28.1344 14.3908C28.4767 14.4867 28.7505 14.7605 28.8464 15.1165C28.9422 15.4588 28.8464 15.8421 28.5725 16.0886L24.3145 20.3466L23.1097 19.1418L26.5325 15.7189L12.8548 11.8716L16.7021 25.5493L20.1112 22.1402L26.5188 28.5478L29.5172 25.5493L25.2044 21.2365L26.4093 20.0317L31.9269 25.5493L26.5051 30.9712L26.5325 30.9575Z" fill="#24293D"/>
</svg>
