<svg width="42" height="44" viewBox="0 0 42 44" fill="none" xmlns="http://www.w3.org/2000/svg">
<path d="M17.8871 37.9377H7.86719V43.0747H17.8871V37.9377Z" fill="#C5E5F7"/>
<path d="M34.3597 37.9377H24.3398V43.0747H34.3597V37.9377Z" fill="#C5E5F7"/>
<path d="M17.3906 34.3822V36.7718H15.9476V34.3822C15.9476 31.2424 14.5624 28.3103 12.1497 26.3132L7.15133 22.1921C6.72422 21.765 6.10086 21.765 5.71992 22.146C5.33898 22.5269 5.33898 23.1503 5.71992 23.5312L10.1181 28.1948H8.34033L4.70408 24.547C3.7575 23.612 3.7575 22.0652 4.70408 21.1301C5.61602 20.2066 7.20905 20.2066 8.121 21.1301L13.0617 25.1935C15.8091 27.4676 17.3906 30.8153 17.3906 34.3822Z" fill="#24293D"/>
<path d="M10.0601 36.7719H8.58254L7.68214 32.9856L3.08776 28.6105C1.35621 26.9598 0.375 24.651 0.375 22.2615V11.8491H2.53366C4.01125 11.8491 5.21179 13.0612 5.21179 14.5388V20.2067C4.9232 20.3453 4.66924 20.4261 4.43837 20.6569C4.14978 20.9455 3.90736 21.2341 3.76884 21.592V14.5388C3.76884 13.8577 3.21474 13.2921 2.53366 13.2921H1.81796V22.2615C1.81796 24.2586 2.63756 26.1863 4.08051 27.56L8.97503 32.2352L10.0601 36.7719Z" fill="#24293D"/>
<path d="M8.53585 17.1592V20.7839C8.07411 20.3452 7.64699 20.1259 7.0929 20.0105V17.1707C7.0929 16.6974 6.73504 16.3049 6.26175 16.2472C6.22712 16.2357 6.19249 16.2357 6.14632 16.2357H5.68457V14.7927H6.26175C7.52001 14.862 8.53585 15.9009 8.53585 17.1707V17.1592Z" fill="#24293D"/>
<path d="M18.6261 43.5364H7.30176V37.5337H18.6261V43.5364ZM8.74472 42.0934H17.1831V38.9766H8.74472V42.0934Z" fill="#24293D"/>
<path d="M24.916 34.382V36.7715H26.359V34.382C26.359 31.2421 27.7442 28.31 30.1568 26.313L35.1552 22.1919C35.5824 21.7648 36.2057 21.7648 36.5867 22.1457C36.9676 22.5267 36.9676 23.15 36.5867 23.531L32.1885 28.1946H33.9662L37.6025 24.5468C38.5491 23.6118 38.5491 22.0649 37.6025 21.1299C36.6905 20.2064 35.0975 20.2064 34.1856 21.1299L29.2449 25.1932C26.4975 27.4673 24.916 30.815 24.916 34.382Z" fill="#24293D"/>
<path d="M32.2471 36.7719H33.7247L34.6251 32.9856L39.2194 28.6105C40.951 26.9598 41.9322 24.651 41.9322 22.2615V11.8491H39.7735C38.2959 11.8491 37.0954 13.0612 37.0954 14.5388V20.2067C37.384 20.3453 37.638 20.4261 37.8688 20.6569C38.1574 20.9455 38.3998 21.2341 38.5384 21.592V14.5388C38.5384 13.8577 39.0925 13.2921 39.7735 13.2921H40.4892V22.2615C40.4892 24.2586 39.6696 26.1863 38.2267 27.56L33.3322 32.2352L32.2471 36.7719Z" fill="#24293D"/>
<path d="M33.7695 17.1592V20.7839C34.2313 20.3452 34.6584 20.1259 35.2125 20.0105V17.1707C35.2125 16.6974 35.5703 16.3049 36.0436 16.2472C36.0783 16.2357 36.1129 16.2357 36.1591 16.2357H36.6208V14.7927H36.0436C34.7854 14.862 33.7695 15.9009 33.7695 17.1707V17.1592Z" fill="#24293D"/>
<path d="M23.6807 37.5454H35.005V43.5481H23.6807V37.5454ZM33.562 38.9884H25.1236V42.1052H33.562V38.9884Z" fill="#24293D"/>
<path d="M11.2373 6.01986L11.7337 10.9375C11.9646 13.2346 13.0612 15.3471 14.8043 16.8594L21.4534 22.6196L28.2065 16.8709C29.9842 15.3587 31.1039 13.2231 31.3348 10.9028L31.7388 6.83946L27.4561 4.95784C26.1748 4.3922 24.9627 3.68804 23.8545 2.84535L21.4996 1.06763L18.8908 2.79918C17.5863 3.66495 16.1664 4.35757 14.6773 4.86549L11.2604 6.01986H11.2373Z" fill="#C6E4F8"/>
<path d="M21.4419 23.5661L14.331 17.4018C12.4378 15.7626 11.2604 13.5 11.018 11.0066L10.4639 5.52336L14.4233 4.18429C15.8432 3.69946 17.2054 3.04147 18.4752 2.19878L21.5111 0.190186L24.2816 2.26804C25.3552 3.0761 26.5211 3.75718 27.7447 4.28818L32.5007 6.37759L32.039 10.9604C31.785 13.4769 30.5845 15.7741 28.6567 17.4133L21.4303 23.5661H21.4419ZM12.0107 6.51611L12.4494 10.8565C12.6572 12.9806 13.6615 14.9083 15.2776 16.3051L21.4534 21.6498L27.7332 16.3051C29.3724 14.9083 30.3998 12.9575 30.6076 10.8104L30.9654 7.27799L27.1675 5.60416C25.84 5.02698 24.5818 4.28818 23.4159 3.41087L21.465 1.94482L19.2832 3.39932C17.9211 4.29973 16.4435 5.02698 14.8966 5.54644L12.0223 6.51611H12.0107Z" fill="#24293D"/>
</svg>
