<svg width="26" height="21" viewBox="0 0 26 21" fill="none" xmlns="http://www.w3.org/2000/svg">
<path d="M12.8737 14.4893H11.9995V11.2935C11.9995 10.811 11.6079 10.4264 11.1324 10.4264H5.37017C4.88765 10.4264 4.50303 10.818 4.50303 11.2935V14.4893H3.62891V11.2935C3.62891 10.3285 4.41212 9.55225 5.37017 9.55225H11.1254C12.0905 9.55225 12.8667 10.3355 12.8667 11.2935V14.4893H12.8737Z" fill="white"/>
<path d="M8.25136 8.02786C6.85275 8.02786 5.71289 6.888 5.71289 5.48939C5.71289 4.09079 6.85275 2.95093 8.25136 2.95093C9.64996 2.95093 10.7898 4.09079 10.7898 5.48939C10.7898 6.888 9.64996 8.02786 8.25136 8.02786ZM8.25136 3.81806C7.33527 3.81806 6.58702 4.56631 6.58702 5.4824C6.58702 6.39848 7.33527 7.14674 8.25136 7.14674C9.16744 7.14674 9.91569 6.39848 9.91569 5.4824C9.91569 4.56631 9.16744 3.81806 8.25136 3.81806Z" fill="white"/>
<path d="M21 21H0V5.91602H0.874127V20.1258H20.1259V16.5664L21 16.4825V21Z" fill="white"/>
<path d="M21 6.04896L20.1259 5.96504V2.83217C20.1259 1.75525 19.2448 0.874127 18.1679 0.874127H0.874127V4.5105H0V0H18.1679C19.7273 0 21 1.27273 21 2.83217V6.04896Z" fill="white"/>
<path d="M13.0628 16.042L12.874 16.9161H3.44043L3.62924 16.042H13.0628Z" fill="white"/>
<path d="M24.3559 10.6081L23.4817 11.4822C23.3629 13.3494 21.8104 14.8319 19.9153 14.8319C18.0202 14.8319 16.3419 13.2305 16.3419 11.2515C16.3419 9.27246 17.9433 7.67105 19.9153 7.67105C20.8943 7.67105 21.7824 8.06266 22.4328 8.70602L23.0761 8.06966C22.2649 7.26546 21.1531 6.76196 19.9083 6.76196C17.4398 6.76196 15.4258 8.77595 15.4258 11.2515C15.4258 13.727 17.4398 15.741 19.9083 15.741C22.3768 15.741 24.3978 13.72 24.3978 11.2515C24.3978 11.0347 24.3838 10.8249 24.3489 10.6151L24.3559 10.6081ZM23.3629 10.2795L24.0761 9.56616C23.9712 9.29343 23.8384 9.0277 23.6775 8.78994L23.0202 9.44728C23.174 9.69903 23.2929 9.98574 23.3698 10.2725L23.3629 10.2795Z" fill="white"/>
<path d="M25.636 8.0415L20.4192 13.2723L17.4961 10.3492H18.8318L20.4192 11.9366L24.3213 8.0415H25.636Z" fill="white"/>
</svg>
